   <svg
      height="80"
      viewBox="0 0 100 180"
      fill="white"
      xmlns="http://www.w3.org/2000/svg"
    >
      <path
        d="M73.5066 82.8904C70.6323 80.7218 68.7457 77.3155 68.7457 73.4438C68.7457 73.2457 68.7951 73.0576 68.805 72.8596C63.0762 71.8892 47.7763 69.2057 31.9925 65.6706C30.3726 65.3142 28.9404 64.7696 27.607 64.1259L45.8009 99.9913C62.6811 99.9418 71.1261 87.2473 73.5066 82.8904Z"
      />
      <path
        d="M45.7811 103.932C45.6329 103.932 45.4847 103.932 45.3465 103.932C41.6129 107.21 20.4854 125.44 0 136.431C44.8723 142.749 57.4658 134.807 57.5942 134.718L62.6514 131.985C71.7286 119.409 74.3856 97.4762 75.1362 87.5642C70.9483 93.7134 61.6242 103.932 45.7811 103.932Z"
      />
      <path
        d="M80.5193 234.105H87.2161V123.132L80.5193 126.747V234.105Z"
      />
      <path
        d="M71.1754 66.3341C73.1707 63.6903 76.2227 61.9376 79.7094 61.6801V44.3218C79.7094 35.5386 81.0132 28.4388 83.68 22.8342L53.6335 41.8462C53.5841 41.8759 53.5248 41.866 53.4754 41.8858C53.3964 41.9255 53.347 41.9948 53.2581 42.0245C53.2581 42.0245 52.863 42.2522 52.7544 42.9949C52.5074 44.5594 53.2384 49.4808 65.3577 61.2147L71.1754 66.3341Z"
      />
      <path
        d="M72.6373 73.4438C72.6373 77.8304 76.203 81.4051 80.5786 81.4051C83.3442 81.4051 85.7839 79.9693 87.2062 77.8205C87.2161 77.7908 87.2062 77.7611 87.2161 77.7314C87.2457 77.6522 87.3248 77.6126 87.3643 77.5334C88.0853 76.3352 88.5298 74.9489 88.5298 73.4438C88.5298 70.5524 86.9692 68.0471 84.6678 66.651C84.648 66.6411 84.6184 66.6411 84.5986 66.6311C84.5888 66.6212 84.5789 66.6113 84.569 66.6014C83.3936 65.9083 82.0503 65.4924 80.5885 65.4924C76.1931 65.4825 72.6373 69.0572 72.6373 73.4438Z"
      />
      <path
        d="M68.0739 68.7898L62.7205 64.0764C52.4086 54.105 47.9342 46.9161 48.9812 42.0542C49.1886 41.064 49.6035 40.3114 50.0578 39.7569L25.7005 0L19.9322 34.8455C19.7742 35.7961 16.2776 58.1748 32.8319 61.8782C47.4008 65.1261 61.5549 67.661 68.0739 68.7898Z"
      />
      <path
        d="M113.776 50.7779C113.776 50.768 113.766 50.768 113.756 50.7581C113.707 50.669 113.134 49.7283 111.623 49.4114C109.924 49.055 105.983 49.3124 98.6538 55.016C93.8733 58.7392 90.4853 62.195 88.4605 64.6805C90.8607 66.849 92.4015 69.9682 92.4015 73.4537C92.4015 74.4439 92.2435 75.3846 92.0163 76.3055C99.3946 75.9986 118.112 76.1471 131.644 83.9994L113.776 50.7977C113.776 50.7878 113.776 50.7779 113.776 50.7779Z"
      />
      <path
        d="M100.284 93.5847L89.2013 81.5041C87.0382 83.8311 83.9862 85.3065 80.5785 85.3065C80.1044 85.3065 79.65 85.2174 79.1957 85.1679C78.7809 92.4063 76.9437 113.389 69.3579 128.371L103.918 109.685C107.899 100.625 100.6 93.8718 100.284 93.5847Z"
      />
      <path
        d="M112.877 10.4368C103.899 10.9814 97.2217 13.1302 92.5301 17.2197C92.5103 17.2296 92.5004 17.2495 92.4905 17.2594L92.4411 17.2891C86.3172 22.6758 83.601 31.4193 83.601 44.3218V62.0366C84.1443 62.1851 84.6974 62.3238 85.211 62.5416C87.7692 59.3135 91.73 55.4814 96.2735 51.9365C102.921 46.7577 108.442 44.6386 112.63 45.6487C113.924 45.9556 114.823 46.52 115.534 47.0944C125.461 37.519 150.124 20.8835 159.972 14.3679C150.48 12.7341 128.799 9.47631 112.877 10.4368Z"
      />
      <path
        d="M93.2511 80.1673L103 90.8121C106.269 93.7134 111.435 101.685 107.652 110.854L121.747 130.51L140.138 156.176L142.311 135.362C142.341 135.104 142.41 134.866 142.529 134.649C142.667 134.025 143.131 130.906 143.2 117.637C143.279 102.12 136.513 92.8222 136.099 92.2677C124.898 80.6822 102.417 79.9297 93.2511 80.1673Z"
      />
    </svg>