   <svg
      height="40"
      viewBox="0 0 973 235"
      fill="white"
      xmlns="http://www.w3.org/2000/svg"
    >
      <path
        d="M73.5066 82.8904C70.6323 80.7218 68.7457 77.3155 68.7457 73.4438C68.7457 73.2457 68.7951 73.0576 68.805 72.8596C63.0762 71.8892 47.7763 69.2057 31.9925 65.6706C30.3726 65.3142 28.9404 64.7696 27.607 64.1259L45.8009 99.9913C62.6811 99.9418 71.1261 87.2473 73.5066 82.8904Z"
      />
      <path
        d="M45.7811 103.932C45.6329 103.932 45.4847 103.932 45.3465 103.932C41.6129 107.21 20.4854 125.44 0 136.431C44.8723 142.749 57.4658 134.807 57.5942 134.718L62.6514 131.985C71.7286 119.409 74.3856 97.4762 75.1362 87.5642C70.9483 93.7134 61.6242 103.932 45.7811 103.932Z"
      />
      <path
        d="M80.5193 234.105H87.2161V123.132L80.5193 126.747V234.105Z"
      />
      <path
        d="M71.1754 66.3341C73.1707 63.6903 76.2227 61.9376 79.7094 61.6801V44.3218C79.7094 35.5386 81.0132 28.4388 83.68 22.8342L53.6335 41.8462C53.5841 41.8759 53.5248 41.866 53.4754 41.8858C53.3964 41.9255 53.347 41.9948 53.2581 42.0245C53.2581 42.0245 52.863 42.2522 52.7544 42.9949C52.5074 44.5594 53.2384 49.4808 65.3577 61.2147L71.1754 66.3341Z"
      />
      <path
        d="M72.6373 73.4438C72.6373 77.8304 76.203 81.4051 80.5786 81.4051C83.3442 81.4051 85.7839 79.9693 87.2062 77.8205C87.2161 77.7908 87.2062 77.7611 87.2161 77.7314C87.2457 77.6522 87.3248 77.6126 87.3643 77.5334C88.0853 76.3352 88.5298 74.9489 88.5298 73.4438C88.5298 70.5524 86.9692 68.0471 84.6678 66.651C84.648 66.6411 84.6184 66.6411 84.5986 66.6311C84.5888 66.6212 84.5789 66.6113 84.569 66.6014C83.3936 65.9083 82.0503 65.4924 80.5885 65.4924C76.1931 65.4825 72.6373 69.0572 72.6373 73.4438Z"
      />
      <path
        d="M68.0739 68.7898L62.7205 64.0764C52.4086 54.105 47.9342 46.9161 48.9812 42.0542C49.1886 41.064 49.6035 40.3114 50.0578 39.7569L25.7005 0L19.9322 34.8455C19.7742 35.7961 16.2776 58.1748 32.8319 61.8782C47.4008 65.1261 61.5549 67.661 68.0739 68.7898Z"
      />
      <path
        d="M113.776 50.7779C113.776 50.768 113.766 50.768 113.756 50.7581C113.707 50.669 113.134 49.7283 111.623 49.4114C109.924 49.055 105.983 49.3124 98.6538 55.016C93.8733 58.7392 90.4853 62.195 88.4605 64.6805C90.8607 66.849 92.4015 69.9682 92.4015 73.4537C92.4015 74.4439 92.2435 75.3846 92.0163 76.3055C99.3946 75.9986 118.112 76.1471 131.644 83.9994L113.776 50.7977C113.776 50.7878 113.776 50.7779 113.776 50.7779Z"
      />
      <path
        d="M100.284 93.5847L89.2013 81.5041C87.0382 83.8311 83.9862 85.3065 80.5785 85.3065C80.1044 85.3065 79.65 85.2174 79.1957 85.1679C78.7809 92.4063 76.9437 113.389 69.3579 128.371L103.918 109.685C107.899 100.625 100.6 93.8718 100.284 93.5847Z"
      />
      <path
        d="M112.877 10.4368C103.899 10.9814 97.2217 13.1302 92.5301 17.2197C92.5103 17.2296 92.5004 17.2495 92.4905 17.2594L92.4411 17.2891C86.3172 22.6758 83.601 31.4193 83.601 44.3218V62.0366C84.1443 62.1851 84.6974 62.3238 85.211 62.5416C87.7692 59.3135 91.73 55.4814 96.2735 51.9365C102.921 46.7577 108.442 44.6386 112.63 45.6487C113.924 45.9556 114.823 46.52 115.534 47.0944C125.461 37.519 150.124 20.8835 159.972 14.3679C150.48 12.7341 128.799 9.47631 112.877 10.4368Z"
      />
      <path
        d="M93.2511 80.1673L103 90.8121C106.269 93.7134 111.435 101.685 107.652 110.854L121.747 130.51L140.138 156.176L142.311 135.362C142.341 135.104 142.41 134.866 142.529 134.649C142.667 134.025 143.131 130.906 143.2 117.637C143.279 102.12 136.513 92.8222 136.099 92.2677C124.898 80.6822 102.417 79.9297 93.2511 80.1673Z"
      />
      <path
        d="M192.738 120.114L198.346 111.206C199.501 109.389 200.491 108.894 202.141 109.719C202.306 110.049 212.37 115.989 223.425 115.989C232.994 115.989 236.294 112.194 236.294 108.399C236.294 102.79 230.189 100.811 219.135 98.0069C203.46 93.8821 193.066 85.7979 193.066 73.2579C193.066 60.8834 203.625 49.3344 223.424 49.3344C235.468 49.3344 243.717 53.4592 250.317 57.254C251.967 58.2439 252.792 59.7289 251.802 61.0488L245.697 70.4533C244.872 71.7732 243.552 72.2682 242.067 71.7732C237.778 69.63 230.848 66.4935 223.423 66.4935C214.183 66.4935 211.708 71.1133 211.708 73.9181C211.708 78.7029 218.638 81.0127 227.053 83.3209C241.738 87.2807 256.423 94.3754 256.423 108.73C256.423 122.589 243.225 133.147 223.425 133.147C209.896 133.147 197.686 126.549 193.561 123.249C192.407 122.589 192.077 120.939 192.736 120.114L192.738 120.114ZM311.532 133.147C334.631 133.147 353.77 114.834 353.77 91.2406C353.77 67.1517 334.631 49.1682 311.532 49.1682C288.433 49.1682 269.294 67.1526 269.294 91.2406C269.294 114.834 288.433 133.147 311.532 133.147ZM311.532 116.319C297.343 116.319 286.783 104.605 286.783 91.4057C286.783 77.7112 297.342 65.9968 311.532 65.9968C325.722 65.9968 336.281 77.7112 336.281 91.4057C336.281 104.605 325.722 116.319 311.532 116.319ZM368.289 120.114L373.897 111.206C375.052 109.389 376.042 108.894 377.692 109.719C377.857 110.049 387.921 115.989 398.975 115.989C408.545 115.989 411.844 112.194 411.844 108.399C411.844 102.79 405.74 100.811 394.685 98.0069C379.011 93.8821 368.616 85.7979 368.616 73.2579C368.616 60.8834 379.175 49.3344 398.974 49.3344C411.019 49.3344 419.268 53.4592 425.868 57.254C427.518 58.2439 428.343 59.7289 427.353 61.0488L421.248 70.4533C420.423 71.7732 419.103 72.2682 417.618 71.7732C413.328 69.63 406.399 66.4935 398.974 66.4935C389.734 66.4935 387.259 71.1133 387.259 73.9181C387.259 78.7029 394.189 81.0127 402.604 83.3209C417.289 87.2807 431.974 94.3754 431.974 108.73C431.974 122.589 418.776 133.147 398.976 133.147C385.447 133.147 373.237 126.549 369.112 123.249C367.957 122.589 367.627 120.939 368.287 120.114L368.289 120.114ZM460.849 19.9672C455.406 19.9672 450.951 15.6774 450.951 10.0682C450.951 4.62354 455.406 0.169234 460.849 0.169234C466.294 0.169234 470.748 4.62403 470.748 10.0682C470.748 15.6779 466.293 19.9672 460.849 19.9672ZM467.283 50.3213H454.579C452.929 50.3213 451.939 51.4779 451.939 52.9612V125.393C451.939 129.187 454.249 131.991 458.209 131.991H467.448C468.933 131.991 469.923 131.002 469.923 129.187V52.9615C469.923 51.4782 468.768 50.3216 467.283 50.3216L467.283 50.3213ZM632.609 128.529C633.104 130.343 632.446 131.995 630.963 131.995H620.238C616.113 131.995 613.803 129.192 613.803 125.397V82.3345C613.803 71.6101 606.214 65.3401 595.324 65.3401C585.92 65.3401 578 70.7848 571.236 77.5491C571.399 78.539 571.399 79.529 571.399 80.6855V117.147C571.564 121.767 571.894 125.232 572.389 128.532C572.719 130.346 572.224 131.995 570.739 131.995H560.014C555.725 131.995 553.58 129.191 553.58 125.397V82.3342C553.58 71.6097 545.99 65.3397 535.099 65.3397C525.696 65.3397 517.776 70.6194 511.176 77.3842V129.357C511.176 130.84 510.021 131.995 508.536 131.995H495.667C494.183 131.995 493.193 130.84 493.193 129.357V52.9642C493.193 51.4809 494.182 50.3243 495.667 50.3243H504.577C508.537 50.3243 511.012 54.4491 511.177 57.4189V59.0688C517.611 54.1175 526.191 49.3343 537.41 49.3343C548.795 49.3343 560.179 54.1175 566.449 63.3569C573.049 57.2522 583.278 49.3324 597.797 49.3324C614.791 49.3324 631.784 60.0569 631.784 80.6823V117.144C631.784 121.764 632.279 125.228 632.609 128.528L632.609 128.529ZM698.436 126.714C698.931 128.034 697.943 128.855 696.788 129.68C693.983 131.495 687.879 132.815 681.774 132.815C664.119 132.815 657.685 123.741 657.685 102.457V67.6436H647.95C646.465 67.6436 645.31 66.6537 645.31 65.0037V62.1988C645.31 60.8789 645.64 59.8906 646.63 58.8991C656.2 51.1445 663.789 43.062 670.389 26.3956C670.884 25.2407 671.379 24.5807 672.204 24.5807H674.019C675.339 24.5807 675.834 25.2407 675.834 26.7256V50.3191H693.158C694.643 50.3191 695.963 51.4756 695.963 53.1256V65.0046C695.963 66.4895 694.643 67.6445 693.158 67.6445H678.804C677.484 67.6445 676.329 67.4795 675.669 67.1496V100.808C675.669 110.377 676.824 115.822 684.908 115.822C688.373 115.822 690.683 115.327 692.663 114.832C694.643 114.337 695.963 115.162 696.293 116.979L698.436 126.714ZM781.264 97.8383C787.202 97.8383 791.325 94.8685 791.325 87.9393C791.325 67.6458 775.651 49.1658 751.563 49.1658C728.629 49.1658 710.645 67.3148 710.645 91.0738C710.645 115.821 729.454 132.815 752.553 132.815C767.237 132.815 778.786 126.876 785.881 117.306C786.872 115.986 786.542 114.996 785.554 113.676L782.419 109.552C781.099 107.903 779.779 108.067 778.128 109.057C772.85 113.347 764.105 116.978 754.535 116.978C741.006 116.978 731.436 108.728 729.622 97.839H781.264L781.264 97.8383ZM729.62 83.8138C730.28 75.8942 737.705 65.6648 751.234 65.6648C764.928 65.6648 772.023 76.0593 772.517 83.8138H729.619H729.62ZM874.812 117.143C875.802 118.628 875.799 119.783 874.644 120.939C867.385 127.869 857.815 133.147 846.265 133.147C823.496 133.147 804.027 114.835 804.027 91.4057C804.027 67.8122 823.496 49.1678 846.265 49.1678C857.814 49.1678 867.219 53.9526 873.984 60.7168C875.139 61.8733 875.139 63.1933 874.149 64.5116L867.88 72.4312C866.89 73.7511 865.9 73.9161 863.92 72.5962C859.795 68.4714 854.185 65.9965 846.761 65.9965C831.088 65.9965 821.354 78.2055 821.354 91.2399C821.354 104.109 831.088 116.483 846.927 116.483C854.352 116.483 859.632 113.679 864.416 108.894C866.231 107.409 867.388 107.904 868.543 109.224L874.812 117.143ZM972.654 128.529C972.982 130.343 972.489 131.993 971.004 131.993H960.28C955.99 131.993 953.845 129.19 953.845 125.395V82.4974C953.845 71.6084 946.255 65.3384 935.364 65.3384C925.794 65.3384 918.039 69.7932 911.44 76.2274V129.356C911.44 129.851 911.277 130.346 911.112 130.676C910.782 131.171 910.452 131.501 910.122 131.666C909.627 131.831 909.297 131.994 908.802 131.994H895.933C894.448 131.994 893.458 130.84 893.458 129.356V52.9639V52.4689V14.0255C893.458 8.41576 892.633 5.94086 892.138 3.46645C891.81 1.6499 892.305 0 893.955 0H905.174C908.969 0 911.444 2.4749 911.444 5.93969V59.0666C917.878 54.1153 926.458 49.1657 937.843 49.1657C954.672 49.1657 971.664 59.8921 971.664 80.5156V117.144C971.829 121.763 972.159 125.228 972.654 128.528L972.654 128.529Z"
      />
      <path
        d="M192.619 201.243L194.56 199.036C195.046 198.507 195.575 198.507 195.972 198.815C197.164 199.83 200.164 202.831 204.18 202.831C208.593 202.831 211.241 200.713 211.241 197.801C211.241 194.182 207.268 193.167 203.473 191.711C197.693 189.416 193.103 186.857 193.103 181.341C193.103 176.839 196.413 171.721 204.356 171.721C209.783 171.721 213.711 174.854 214.814 175.913C215.211 176.31 215.432 176.84 215.079 177.281L213.358 179.531C213.005 180.017 212.519 180.194 211.946 179.797C210.798 178.914 208.062 176.443 204.4 176.443C200.428 176.443 198.089 178.649 198.089 181.341C198.089 184.386 201.002 185.622 205.15 187.21C210.446 189.328 216.182 191.8 216.182 197.845C216.182 203.008 211.24 207.597 204.224 207.597C197.869 207.597 193.942 203.493 192.839 202.434C192.486 202.125 192.177 201.729 192.618 201.243L192.619 201.243ZM238.909 207.597C248.838 207.597 256.913 199.699 256.913 189.593C256.913 179.62 248.838 171.677 238.909 171.677C228.891 171.677 220.816 179.62 220.816 189.593C220.816 199.699 228.891 207.597 238.909 207.597ZM238.909 202.788C231.76 202.788 225.802 196.831 225.802 189.594C225.802 182.445 231.76 176.488 238.909 176.488C246.013 176.488 251.97 182.445 251.97 189.594C251.97 196.831 246.013 202.788 238.909 202.788ZM283.832 202.478C284.228 202.478 284.537 202.743 284.537 203.229V206.582C284.537 206.979 284.228 207.288 283.831 207.288H263.003C262.605 207.288 262.429 206.979 262.429 206.582V172.692C262.429 172.294 262.694 171.985 263.135 171.985H266.71C267.107 171.985 267.416 172.294 267.416 172.692V202.479H283.832L283.832 202.478ZM317.192 171.942H313.618C313.176 171.942 312.912 172.208 312.912 172.693V194.007C312.912 199.876 308.764 202.788 303.865 202.788C299.055 202.788 295.04 199.876 295.04 194.007V172.693C295.04 172.208 294.775 171.942 294.334 171.942H290.848C290.362 171.942 290.053 172.208 290.053 172.693V194.36C290.053 201.685 295.172 207.598 303.865 207.598C312.603 207.598 317.854 201.685 317.898 194.36V172.693C317.898 172.208 317.633 171.942 317.192 171.942H317.192ZM349.978 171.987C350.376 171.987 350.684 172.251 350.684 172.693V176.091C350.684 176.488 350.375 176.797 349.978 176.797H339.343V206.54C339.343 207.025 339.079 207.29 338.637 207.29H336.078C334.931 207.29 334.357 206.54 334.357 205.525V176.797H323.722C323.325 176.797 322.972 176.532 322.972 176.091V172.738C322.972 172.296 323.281 171.987 323.722 171.987H349.979L349.978 171.987ZM360.306 171.987L356.908 171.986C356.466 171.986 356.201 172.295 356.201 172.692V206.539C356.201 206.98 356.51 207.289 356.952 207.289H360.35C360.747 207.289 361.012 206.936 361.012 206.539V172.693C361.012 172.296 360.703 171.987 360.306 171.987L360.306 171.987ZM385.282 207.597C395.211 207.597 403.286 199.699 403.286 189.593C403.286 179.62 395.211 171.677 385.282 171.677C375.265 171.677 367.189 179.62 367.189 189.593C367.189 199.699 375.265 207.597 385.282 207.597ZM385.282 202.788C378.133 202.788 372.176 196.831 372.176 189.594C372.176 182.445 378.133 176.488 385.282 176.488C392.387 176.488 398.344 182.445 398.344 189.594C398.344 196.831 392.387 202.788 385.282 202.788ZM438.987 171.987C439.384 171.987 439.694 172.296 439.694 172.649V206.628C439.694 206.981 439.429 207.29 439.032 207.29H437.796C436.87 207.29 435.899 206.628 434.663 205.26L414.188 181.74V206.54C414.188 206.937 413.879 207.246 413.482 207.246L409.995 207.29C409.554 207.29 409.245 206.981 409.245 206.539V172.693C409.245 172.296 409.554 171.987 409.951 171.987H412.025C412.422 171.987 412.687 172.164 413.04 172.561L434.75 197.89V172.649C434.75 172.296 435.015 171.987 435.412 171.987H438.987L438.987 171.987ZM445.209 201.243L447.15 199.036C447.636 198.507 448.165 198.507 448.562 198.815C449.754 199.83 452.755 202.831 456.77 202.831C461.183 202.831 463.831 200.713 463.831 197.801C463.831 194.182 459.859 193.167 456.063 191.711C450.283 189.416 445.693 186.857 445.693 181.341C445.693 176.839 449.003 171.721 456.946 171.721C462.373 171.721 466.301 174.854 467.404 175.913C467.801 176.31 468.022 176.84 467.669 177.281L465.948 179.531C465.595 180.017 465.109 180.194 464.536 179.797C463.388 178.914 460.652 176.443 456.99 176.443C453.018 176.443 450.68 178.649 450.68 181.341C450.68 184.386 453.592 185.622 457.74 187.21C463.036 189.328 468.772 191.8 468.772 197.845C468.772 203.008 463.831 207.597 456.814 207.597C450.46 207.597 446.532 203.493 445.429 202.434C445.076 202.125 444.767 201.729 445.208 201.243L445.209 201.243ZM525.962 171.987C526.36 171.987 526.67 172.296 526.67 172.738V206.54C526.67 206.937 526.405 207.29 525.963 207.29H522.477C521.992 207.29 521.727 206.981 521.727 206.539V182.225L507.341 205.745C507.121 206.098 506.9 206.275 506.547 206.275H506.327C505.974 206.275 505.753 206.098 505.532 205.745L491.191 182.225V206.539C491.191 206.937 490.881 207.289 490.44 207.289H486.954C486.513 207.289 486.203 206.98 486.203 206.539V172.693C486.203 172.295 486.468 171.986 486.909 171.986H489.91C490.307 171.986 490.572 172.119 490.792 172.472L506.458 198.067L522.123 172.472C522.299 172.119 522.564 171.986 523.006 171.986H525.962L525.962 171.987ZM566.739 206.494C566.959 206.936 566.827 207.288 566.342 207.288H562.326C561.929 207.288 561.709 207.112 561.576 206.803L558.84 201.066H539.821L537.129 206.803C536.953 207.112 536.732 207.288 536.379 207.288H532.319C531.878 207.288 531.657 206.936 531.834 206.494L548.47 172.163C548.603 171.855 548.823 171.766 549.044 171.766H549.617C549.838 171.766 550.014 171.855 550.191 172.163L566.739 206.494ZM541.982 196.522H556.677L549.352 180.9L541.982 196.522ZM583.815 171.987C595.553 171.987 601.864 181.078 601.864 189.462C601.864 198.684 595.51 207.289 583.86 207.289H572.033C571.591 207.289 571.283 206.981 571.283 206.539V172.693C571.283 172.296 571.547 171.987 571.989 171.987H583.815L583.815 171.987ZM583.948 202.479C592.112 202.479 596.79 196.081 596.746 189.418C596.746 182.886 592.244 176.797 583.948 176.797H576.226L576.27 202.479H583.948H583.948ZM630.106 176.795H612.587V187.563H622.737C623.178 187.563 623.487 187.872 623.487 188.313V191.623C623.487 192.108 623.178 192.373 622.737 192.373H612.587L612.631 202.478H630.106C630.548 202.478 630.856 202.787 630.856 203.228V206.538C630.856 206.979 630.548 207.288 630.106 207.288H608.351C607.91 207.288 607.6 206.979 607.6 206.538V172.692C607.6 172.295 607.866 171.986 608.307 171.986H630.106C630.548 171.986 630.857 172.295 630.857 172.692V176.09C630.857 176.531 630.548 176.796 630.106 176.796L630.106 176.795ZM647.934 201.243L649.876 199.036C650.361 198.507 650.891 198.507 651.287 198.815C652.479 199.83 655.48 202.831 659.496 202.831C663.908 202.831 666.556 200.713 666.556 197.801C666.556 194.182 662.584 193.167 658.789 191.711C653.008 189.416 648.418 186.857 648.418 181.341C648.418 176.839 651.728 171.721 659.671 171.721C665.099 171.721 669.026 174.854 670.129 175.913C670.526 176.31 670.747 176.84 670.394 177.281L668.673 179.531C668.32 180.017 667.835 180.194 667.261 179.797C666.114 178.914 663.378 176.443 659.715 176.443C655.744 176.443 653.405 178.649 653.405 181.341C653.405 184.386 656.317 185.622 660.466 187.21C665.761 189.328 671.498 191.8 671.498 197.845C671.498 203.008 666.556 207.597 659.539 207.597C653.185 207.597 649.257 203.493 648.154 202.434C647.801 202.125 647.492 201.729 647.934 201.243L647.934 201.243ZM681.118 171.987L677.72 171.986C677.279 171.986 677.014 172.295 677.014 172.692V206.539C677.014 206.98 677.323 207.289 677.765 207.289H681.162C681.56 207.289 681.824 206.936 681.824 206.539V172.693C681.824 172.296 681.516 171.987 681.118 171.987L681.118 171.987ZM728.423 171.987C728.82 171.987 729.13 172.296 729.13 172.738V206.54C729.13 206.937 728.866 207.29 728.424 207.29H724.938C724.452 207.29 724.187 206.981 724.187 206.539V182.225L709.802 205.745C709.581 206.098 709.36 206.275 709.007 206.275H708.787C708.434 206.275 708.214 206.098 707.993 205.745L693.651 182.225V206.539C693.651 206.937 693.342 207.289 692.901 207.289H689.414C688.973 207.289 688.664 206.98 688.664 206.539V172.693C688.664 172.295 688.929 171.986 689.37 171.986H692.37C692.768 171.986 693.032 172.119 693.253 172.472L708.918 198.067L724.583 172.472C724.76 172.119 725.025 171.986 725.466 171.986H728.423L728.423 171.987ZM749.296 171.987C756.975 171.987 761.388 178.473 761.388 183.813C761.388 189.462 756.975 195.728 749.296 195.728H740.515V206.539C740.515 207.025 740.25 207.289 739.809 207.289H736.234C735.793 207.289 735.528 207.025 735.528 206.539V172.693C735.528 172.296 735.793 171.987 736.234 171.987H749.296L749.296 171.987ZM748.9 190.917C753.754 190.917 756.446 187.343 756.446 183.813C756.446 180.326 753.754 176.796 748.9 176.796H740.516V190.917H748.9ZM786.982 202.478C787.379 202.478 787.688 202.743 787.688 203.229V206.582C787.688 206.979 787.378 207.288 786.982 207.288H766.153C765.756 207.288 765.579 206.979 765.579 206.582V172.692C765.579 172.294 765.844 171.985 766.286 171.985H769.86C770.258 171.985 770.566 172.294 770.566 172.692V202.479H786.982L786.982 202.478ZM815.93 176.795H798.412V187.563H808.561C809.002 187.563 809.311 187.872 809.311 188.313V191.623C809.311 192.108 809.002 192.373 808.561 192.373H798.412L798.455 202.478H815.93C816.372 202.478 816.681 202.787 816.681 203.228V206.538C816.681 206.979 816.372 207.288 815.93 207.288H794.175C793.734 207.288 793.425 206.979 793.425 206.538V172.692C793.425 172.295 793.69 171.986 794.131 171.986H815.931C816.372 171.986 816.681 172.295 816.681 172.692V176.09C816.681 176.531 816.372 176.796 815.931 176.796L815.93 176.795Z"
      />
    </svg>