<svg width="461" height="90" viewBox="0 0 461 90" fill="none" xmlns="http://www.w3.org/2000/svg">
<path d="M43.9697 37H38.0606V21C29.7878 22.6 23.7803 31.8333 21.8106 36.5L43.9697 50.5V74.5L38.0606 74C23.4848 71.6 16.8863 58.3333 15.4091 52H21.8106C23.2878 60 33.1363 66.5 38.0606 68.5V53L15.4091 39.5C16.3939 25 33.6288 14.5 43.9697 14.5V37Z" fill="#EFAE56"/>
<path d="M47.9091 37H53.8182V21C62.0909 22.6 68.0985 31.8333 70.0682 36.5L47.9091 50.5V74.5L53.8182 74C68.394 71.6 74.9925 58.3333 76.4697 52H70.0682C68.5909 60 58.7425 66.5 53.8182 68.5V53L76.4697 39.5C75.4849 25 58.25 14.5 47.9091 14.5V37Z" fill="#EFAE56"/>
<path fill-rule="evenodd" clip-rule="evenodd" d="M47 78.5C65.7777 78.5 81 63.2777 81 44.5C81 25.7223 65.7777 10.5 47 10.5C28.2223 10.5 13 25.7223 13 44.5C13 63.2777 28.2223 78.5 47 78.5ZM47 82.5C67.9868 82.5 85 65.4868 85 44.5C85 23.5132 67.9868 6.5 47 6.5C26.0132 6.5 9 23.5132 9 44.5C9 65.4868 26.0132 82.5 47 82.5Z" fill="#EFAE56"/>
<path d="M116.168 55.528C117.277 57.192 118.685 58.4293 120.392 59.24C122.141 60.008 123.933 60.392 125.768 60.392C126.792 60.392 127.837 60.2427 128.904 59.944C129.971 59.6027 130.931 59.112 131.784 58.472C132.68 57.832 133.405 57.0427 133.96 56.104C134.515 55.1653 134.792 54.0773 134.792 52.84C134.792 51.0907 134.237 49.768 133.128 48.872C132.019 47.9333 130.632 47.1653 128.968 46.568C127.347 45.928 125.555 45.3307 123.592 44.776C121.672 44.1787 119.88 43.368 118.216 42.344C116.595 41.32 115.229 39.9547 114.12 38.248C113.011 36.4987 112.456 34.152 112.456 31.208C112.456 29.8853 112.733 28.4773 113.288 26.984C113.885 25.4907 114.803 24.1253 116.04 22.888C117.277 21.6507 118.856 20.6267 120.776 19.816C122.739 18.9627 125.085 18.536 127.816 18.536C130.291 18.536 132.659 18.8773 134.92 19.56C137.181 20.2427 139.165 21.6293 140.872 23.72L135.88 28.264C135.112 27.0693 134.024 26.1093 132.616 25.384C131.208 24.6587 129.608 24.296 127.816 24.296C126.109 24.296 124.68 24.5307 123.528 25C122.419 25.4267 121.523 26.0027 120.84 26.728C120.157 27.4107 119.667 28.1573 119.368 28.968C119.112 29.7787 118.984 30.5253 118.984 31.208C118.984 33.128 119.539 34.6 120.648 35.624C121.757 36.648 123.123 37.48 124.744 38.12C126.408 38.76 128.2 39.336 130.12 39.848C132.083 40.36 133.875 41.0853 135.496 42.024C137.16 42.92 138.547 44.1573 139.656 45.736C140.765 47.272 141.32 49.4053 141.32 52.136C141.32 54.312 140.893 56.2747 140.04 58.024C139.229 59.7733 138.12 61.2453 136.712 62.44C135.304 63.6347 133.64 64.552 131.72 65.192C129.8 65.832 127.752 66.152 125.576 66.152C122.675 66.152 119.923 65.64 117.32 64.616C114.717 63.592 112.648 62.0133 111.112 59.88L116.168 55.528Z" fill="#EFAE56"/>
<path d="M158.136 19.688V47.464C158.136 48.872 158.328 50.344 158.712 51.88C159.096 53.3733 159.736 54.76 160.632 56.04C161.528 57.32 162.701 58.3653 164.152 59.176C165.603 59.9867 167.395 60.392 169.528 60.392C171.661 60.392 173.453 59.9867 174.904 59.176C176.355 58.3653 177.528 57.32 178.424 56.04C179.32 54.76 179.96 53.3733 180.344 51.88C180.728 50.344 180.92 48.872 180.92 47.464V19.688H187.064V48.424C187.064 51.0693 186.616 53.48 185.72 55.656C184.824 57.7893 183.587 59.6453 182.008 61.224C180.429 62.8027 178.573 64.0187 176.44 64.872C174.307 65.7253 172.003 66.152 169.528 66.152C167.053 66.152 164.749 65.7253 162.616 64.872C160.483 64.0187 158.627 62.8027 157.048 61.224C155.469 59.6453 154.232 57.7893 153.336 55.656C152.44 53.48 151.992 51.0693 151.992 48.424V19.688H158.136Z" fill="#EFAE56"/>
<path d="M200.376 19.688H209.528L223.928 53.992H224.184L238.456 19.688H247.608V65H241.464V27.752H241.336L226.04 65H221.944L206.648 27.752H206.52V65H200.376V19.688Z" fill="#EFAE56"/>
<path d="M279.048 59.24L304.84 25.448H279.816V19.688H312.52V25.448L286.856 59.24H312.904V65H279.048V59.24Z" fill="#EFAE56"/>
<path d="M365.414 19.688H381.35C384.252 19.688 386.641 20.0933 388.518 20.904C390.396 21.672 391.868 22.6747 392.934 23.912C394.044 25.1067 394.812 26.472 395.238 28.008C395.665 29.5013 395.878 30.952 395.878 32.36C395.878 33.8107 395.622 35.2187 395.11 36.584C394.598 37.9067 393.852 39.1227 392.87 40.232C391.932 41.2987 390.758 42.216 389.35 42.984C387.985 43.7093 386.449 44.1573 384.742 44.328L397.606 65H389.926L378.406 45.032H371.558V65H365.414V19.688ZM371.558 39.656H379.622C380.817 39.656 381.99 39.5707 383.142 39.4C384.337 39.1867 385.382 38.824 386.278 38.312C387.217 37.8 387.964 37.0747 388.518 36.136C389.073 35.1547 389.35 33.896 389.35 32.36C389.35 30.824 389.073 29.5867 388.518 28.648C387.964 27.6667 387.217 26.92 386.278 26.408C385.382 25.896 384.337 25.5547 383.142 25.384C381.99 25.1707 380.817 25.064 379.622 25.064H371.558V39.656Z" fill="#EFAE56"/>
<path d="M428.214 66.152C424.758 66.152 421.579 65.5547 418.678 64.36C415.777 63.1227 413.281 61.4373 411.19 59.304C409.142 57.1707 407.521 54.6533 406.326 51.752C405.174 48.8507 404.598 45.7147 404.598 42.344C404.598 38.9733 405.174 35.8373 406.326 32.936C407.521 30.0347 409.142 27.5173 411.19 25.384C413.281 23.2507 415.777 21.5867 418.678 20.392C421.579 19.1547 424.758 18.536 428.214 18.536C431.67 18.536 434.849 19.1547 437.75 20.392C440.651 21.5867 443.126 23.2507 445.174 25.384C447.265 27.5173 448.886 30.0347 450.038 32.936C451.233 35.8373 451.83 38.9733 451.83 42.344C451.83 45.7147 451.233 48.8507 450.038 51.752C448.886 54.6533 447.265 57.1707 445.174 59.304C443.126 61.4373 440.651 63.1227 437.75 64.36C434.849 65.5547 431.67 66.152 428.214 66.152ZM428.214 60.392C430.817 60.392 433.163 59.9227 435.254 58.984C437.345 58.0027 439.137 56.7013 440.63 55.08C442.123 53.4587 443.275 51.56 444.086 49.384C444.897 47.1653 445.302 44.8187 445.302 42.344C445.302 39.8693 444.897 37.544 444.086 35.368C443.275 33.1493 442.123 31.2293 440.63 29.608C439.137 27.9867 437.345 26.7067 435.254 25.768C433.163 24.7867 430.817 24.296 428.214 24.296C425.611 24.296 423.265 24.7867 421.174 25.768C419.083 26.7067 417.291 27.9867 415.798 29.608C414.305 31.2293 413.153 33.1493 412.342 35.368C411.531 37.544 411.126 39.8693 411.126 42.344C411.126 44.8187 411.531 47.1653 412.342 49.384C413.153 51.56 414.305 53.4587 415.798 55.08C417.291 56.7013 419.083 58.0027 421.174 58.984C423.265 59.9227 425.611 60.392 428.214 60.392Z" fill="#EFAE56"/>
<path fill-rule="evenodd" clip-rule="evenodd" d="M321 19H353.59V24.7512H321V19ZM321 39.0579H353.59V44.8091H321V39.0579ZM353.59 59.1158H321V64.867H353.59V59.1158Z" fill="#EFAE56"/>
</svg>
